solid OpenSCAD_Model
  facet normal 0.987688 0.156434 0
    outer loop
      vertex 24.75 0 6.66667
      vertex 23.5386 7.64817 0
      vertex 23.5386 7.64817 6.66667
    endloop
  endfacet
  facet normal 0.987688 0.156434 0
    outer loop
      vertex 23.5386 7.64817 0
      vertex 24.75 0 6.66667
      vertex 24.75 0 0
    endloop
  endfacet
  facet normal -0.987688 0.156434 0
    outer loop
      vertex -24.75 0 0
      vertex -23.5386 7.64817 6.66667
      vertex -23.5386 7.64817 0
    endloop
  endfacet
  facet normal -0.987688 0.156434 0
    outer loop
      vertex -23.5386 7.64817 6.66667
      vertex -24.75 0 0
      vertex -24.75 0 6.66667
    endloop
  endfacet
  facet normal 0.156434 0.987688 -0
    outer loop
      vertex 7.64817 23.5386 0
      vertex 0 24.75 6.66667
      vertex 7.64817 23.5386 6.66667
    endloop
  endfacet
  facet normal 0.156434 0.987688 0
    outer loop
      vertex 0 24.75 6.66667
      vertex 7.64817 23.5386 0
      vertex 0 24.75 0
    endloop
  endfacet
  facet normal -0.156434 -0.987688 0
    outer loop
      vertex -7.64817 -23.5386 0
      vertex 0 -24.75 6.66667
      vertex -7.64817 -23.5386 6.66667
    endloop
  endfacet
  facet normal -0.156434 -0.987688 -0
    outer loop
      vertex 0 -24.75 6.66667
      vertex -7.64817 -23.5386 0
      vertex 0 -24.75 0
    endloop
  endfacet
  facet normal 0 0 -1
    outer loop
      vertex 23.5386 -7.64817 0
      vertex 23.5386 7.64817 0
      vertex 24.75 0 0
    endloop
  endfacet
  facet normal 0 0 -1
    outer loop
      vertex 20.0232 -14.5477 0
      vertex 23.5386 7.64817 0
      vertex 23.5386 -7.64817 0
    endloop
  endfacet
  facet normal 0 0 -1
    outer loop
      vertex 20.0232 -14.5477 0
      vertex 20.0232 14.5477 0
      vertex 23.5386 7.64817 0
    endloop
  endfacet
  facet normal 0 0 -1
    outer loop
      vertex 14.5477 -20.0232 0
      vertex 20.0232 14.5477 0
      vertex 20.0232 -14.5477 0
    endloop
  endfacet
  facet normal 0 0 -1
    outer loop
      vertex 14.5477 -20.0232 0
      vertex 14.5477 20.0232 0
      vertex 20.0232 14.5477 0
    endloop
  endfacet
  facet normal 0 0 -1
    outer loop
      vertex 7.64817 -23.5386 0
      vertex 14.5477 20.0232 0
      vertex 14.5477 -20.0232 0
    endloop
  endfacet
  facet normal 0 0 -1
    outer loop
      vertex 7.64817 -23.5386 0
      vertex 7.64817 23.5386 0
      vertex 14.5477 20.0232 0
    endloop
  endfacet
  facet normal 0 0 -1
    outer loop
      vertex 0 -24.75 0
      vertex 7.64817 23.5386 0
      vertex 7.64817 -23.5386 0
    endloop
  endfacet
  facet normal 0 0 -1
    outer loop
      vertex 0 -24.75 0
      vertex 0 24.75 0
      vertex 7.64817 23.5386 0
    endloop
  endfacet
  facet normal 0 0 -1
    outer loop
      vertex -7.64817 -23.5386 0
      vertex 0 24.75 0
      vertex 0 -24.75 0
    endloop
  endfacet
  facet normal 0 0 -1
    outer loop
      vertex -7.64817 -23.5386 0
      vertex -7.64817 23.5386 0
      vertex 0 24.75 0
    endloop
  endfacet
  facet normal 0 0 -1
    outer loop
      vertex -14.5477 -20.0232 0
      vertex -7.64817 23.5386 0
      vertex -7.64817 -23.5386 0
    endloop
  endfacet
  facet normal 0 0 -1
    outer loop
      vertex -14.5477 -20.0232 0
      vertex -14.5477 20.0232 0
      vertex -7.64817 23.5386 0
    endloop
  endfacet
  facet normal 0 0 -1
    outer loop
      vertex -20.0232 -14.5477 0
      vertex -14.5477 20.0232 0
      vertex -14.5477 -20.0232 0
    endloop
  endfacet
  facet normal 0 0 -1
    outer loop
      vertex -20.0232 -14.5477 0
      vertex -20.0232 14.5477 0
      vertex -14.5477 20.0232 0
    endloop
  endfacet
  facet normal 0 0 -1
    outer loop
      vertex -23.5386 -7.64817 0
      vertex -20.0232 14.5477 0
      vertex -20.0232 -14.5477 0
    endloop
  endfacet
  facet normal 0 0 -1
    outer loop
      vertex -23.5386 -7.64817 0
      vertex -23.5386 7.64817 0
      vertex -20.0232 14.5477 0
    endloop
  endfacet
  facet normal 0 -0 -1
    outer loop
      vertex -23.5386 7.64817 0
      vertex -23.5386 -7.64817 0
      vertex -24.75 0 0
    endloop
  endfacet
  facet normal 0.707107 0.707107 0
    outer loop
      vertex 20.0232 14.5477 6.66667
      vertex 14.5477 20.0232 0
      vertex 14.5477 20.0232 6.66667
    endloop
  endfacet
  facet normal 0.707107 0.707107 0
    outer loop
      vertex 14.5477 20.0232 0
      vertex 20.0232 14.5477 6.66667
      vertex 20.0232 14.5477 0
    endloop
  endfacet
  facet normal 0.891007 0.453991 0
    outer loop
      vertex 23.5386 7.64817 6.66667
      vertex 20.0232 14.5477 0
      vertex 20.0232 14.5477 6.66667
    endloop
  endfacet
  facet normal 0.891007 0.453991 0
    outer loop
      vertex 20.0232 14.5477 0
      vertex 23.5386 7.64817 6.66667
      vertex 23.5386 7.64817 0
    endloop
  endfacet
  facet normal 0.453991 0.891007 -0
    outer loop
      vertex 14.5477 20.0232 0
      vertex 7.64817 23.5386 6.66667
      vertex 14.5477 20.0232 6.66667
    endloop
  endfacet
  facet normal 0.453991 0.891007 0
    outer loop
      vertex 7.64817 23.5386 6.66667
      vertex 14.5477 20.0232 0
      vertex 7.64817 23.5386 0
    endloop
  endfacet
  facet normal -0.453991 0.891007 0
    outer loop
      vertex -7.64817 23.5386 0
      vertex -14.5477 20.0232 6.66667
      vertex -7.64817 23.5386 6.66667
    endloop
  endfacet
  facet normal -0.453991 0.891007 0
    outer loop
      vertex -14.5477 20.0232 6.66667
      vertex -7.64817 23.5386 0
      vertex -14.5477 20.0232 0
    endloop
  endfacet
  facet normal -0.707107 0.707107 0
    outer loop
      vertex -20.0232 14.5477 0
      vertex -14.5477 20.0232 6.66667
      vertex -14.5477 20.0232 0
    endloop
  endfacet
  facet normal -0.707107 0.707107 0
    outer loop
      vertex -14.5477 20.0232 6.66667
      vertex -20.0232 14.5477 0
      vertex -20.0232 14.5477 6.66667
    endloop
  endfacet
  facet normal -0.156434 0.987688 0
    outer loop
      vertex 0 24.75 0
      vertex -7.64817 23.5386 6.66667
      vertex 0 24.75 6.66667
    endloop
  endfacet
  facet normal -0.156434 0.987688 0
    outer loop
      vertex -7.64817 23.5386 6.66667
      vertex 0 24.75 0
      vertex -7.64817 23.5386 0
    endloop
  endfacet
  facet normal 0.891007 -0.453991 0
    outer loop
      vertex 20.0232 -14.5477 6.66667
      vertex 23.5386 -7.64817 0
      vertex 23.5386 -7.64817 6.66667
    endloop
  endfacet
  facet normal 0.891007 -0.453991 0
    outer loop
      vertex 23.5386 -7.64817 0
      vertex 20.0232 -14.5477 6.66667
      vertex 20.0232 -14.5477 0
    endloop
  endfacet
  facet normal -0.707107 -0.707107 0
    outer loop
      vertex -14.5477 -20.0232 0
      vertex -20.0232 -14.5477 6.66667
      vertex -20.0232 -14.5477 0
    endloop
  endfacet
  facet normal -0.707107 -0.707107 0
    outer loop
      vertex -20.0232 -14.5477 6.66667
      vertex -14.5477 -20.0232 0
      vertex -14.5477 -20.0232 6.66667
    endloop
  endfacet
  facet normal -0.987688 -0.156434 0
    outer loop
      vertex -23.5386 -7.64817 0
      vertex -24.75 0 6.66667
      vertex -24.75 0 0
    endloop
  endfacet
  facet normal -0.987688 -0.156434 0
    outer loop
      vertex -24.75 0 6.66667
      vertex -23.5386 -7.64817 0
      vertex -23.5386 -7.64817 6.66667
    endloop
  endfacet
  facet normal -0.891007 0.453991 0
    outer loop
      vertex -23.5386 7.64817 0
      vertex -20.0232 14.5477 6.66667
      vertex -20.0232 14.5477 0
    endloop
  endfacet
  facet normal -0.891007 0.453991 0
    outer loop
      vertex -20.0232 14.5477 6.66667
      vertex -23.5386 7.64817 0
      vertex -23.5386 7.64817 6.66667
    endloop
  endfacet
  facet normal 0 0 1
    outer loop
      vertex 16.5 0 6.66667
      vertex 24.75 0 6.66667
      vertex 23.5386 7.64817 6.66667
    endloop
  endfacet
  facet normal 0 0 1
    outer loop
      vertex 15.6924 5.09878 6.66667
      vertex 23.5386 7.64817 6.66667
      vertex 20.0232 14.5477 6.66667
    endloop
  endfacet
  facet normal 0 0 1
    outer loop
      vertex 24.75 0 6.66667
      vertex 16.5 0 6.66667
      vertex 23.5386 -7.64817 6.66667
    endloop
  endfacet
  facet normal -0 0 1
    outer loop
      vertex 15.6924 -5.09878 6.66667
      vertex 23.5386 -7.64817 6.66667
      vertex 16.5 0 6.66667
    endloop
  endfacet
  facet normal 0 0 1
    outer loop
      vertex 23.5386 7.64817 6.66667
      vertex 15.6924 5.09878 6.66667
      vertex 16.5 0 6.66667
    endloop
  endfacet
  facet normal 0 0 1
    outer loop
      vertex 13.3488 9.69846 6.66667
      vertex 20.0232 14.5477 6.66667
      vertex 14.5477 20.0232 6.66667
    endloop
  endfacet
  facet normal 0 0 1
    outer loop
      vertex 20.0232 14.5477 6.66667
      vertex 13.3488 9.69846 6.66667
      vertex 15.6924 5.09878 6.66667
    endloop
  endfacet
  facet normal 0 0 1
    outer loop
      vertex 14.5477 20.0232 6.66667
      vertex 9.69846 13.3488 6.66667
      vertex 13.3488 9.69846 6.66667
    endloop
  endfacet
  facet normal 0 0 1
    outer loop
      vertex 7.64817 23.5386 6.66667
      vertex 9.69846 13.3488 6.66667
      vertex 14.5477 20.0232 6.66667
    endloop
  endfacet
  facet normal 0 0 1
    outer loop
      vertex 7.64817 23.5386 6.66667
      vertex 5.09878 15.6924 6.66667
      vertex 9.69846 13.3488 6.66667
    endloop
  endfacet
  facet normal 0 0 1
    outer loop
      vertex 0 24.75 6.66667
      vertex 5.09878 15.6924 6.66667
      vertex 7.64817 23.5386 6.66667
    endloop
  endfacet
  facet normal 0 0 1
    outer loop
      vertex 0 24.75 6.66667
      vertex 0 16.5 6.66667
      vertex 5.09878 15.6924 6.66667
    endloop
  endfacet
  facet normal 0 0 1
    outer loop
      vertex 0 24.75 6.66667
      vertex -5.09878 15.6924 6.66667
      vertex 0 16.5 6.66667
    endloop
  endfacet
  facet normal -0 0 1
    outer loop
      vertex -7.64817 23.5386 6.66667
      vertex -5.09878 15.6924 6.66667
      vertex 0 24.75 6.66667
    endloop
  endfacet
  facet normal 0 0 1
    outer loop
      vertex -7.64817 23.5386 6.66667
      vertex -9.69846 13.3488 6.66667
      vertex -5.09878 15.6924 6.66667
    endloop
  endfacet
  facet normal -0 0 1
    outer loop
      vertex -14.5477 20.0232 6.66667
      vertex -9.69846 13.3488 6.66667
      vertex -7.64817 23.5386 6.66667
    endloop
  endfacet
  facet normal 0 0 1
    outer loop
      vertex -9.69846 13.3488 6.66667
      vertex -14.5477 20.0232 6.66667
      vertex -13.3488 9.69846 6.66667
    endloop
  endfacet
  facet normal -0 0 1
    outer loop
      vertex -20.0232 14.5477 6.66667
      vertex -13.3488 9.69846 6.66667
      vertex -14.5477 20.0232 6.66667
    endloop
  endfacet
  facet normal 0 0 1
    outer loop
      vertex -13.3488 9.69846 6.66667
      vertex -20.0232 14.5477 6.66667
      vertex -15.6924 5.09878 6.66667
    endloop
  endfacet
  facet normal -0 0 1
    outer loop
      vertex -23.5386 7.64817 6.66667
      vertex -15.6924 5.09878 6.66667
      vertex -20.0232 14.5477 6.66667
    endloop
  endfacet
  facet normal 0 0 1
    outer loop
      vertex 23.5386 -7.64817 6.66667
      vertex 15.6924 -5.09878 6.66667
      vertex 20.0232 -14.5477 6.66667
    endloop
  endfacet
  facet normal -0 0 1
    outer loop
      vertex 13.3488 -9.69846 6.66667
      vertex 20.0232 -14.5477 6.66667
      vertex 15.6924 -5.09878 6.66667
    endloop
  endfacet
  facet normal 0 0 1
    outer loop
      vertex 20.0232 -14.5477 6.66667
      vertex 13.3488 -9.69846 6.66667
      vertex 14.5477 -20.0232 6.66667
    endloop
  endfacet
  facet normal -0 0 1
    outer loop
      vertex 9.69846 -13.3488 6.66667
      vertex 14.5477 -20.0232 6.66667
      vertex 13.3488 -9.69846 6.66667
    endloop
  endfacet
  facet normal 0 0 1
    outer loop
      vertex 9.69846 -13.3488 6.66667
      vertex 7.64817 -23.5386 6.66667
      vertex 14.5477 -20.0232 6.66667
    endloop
  endfacet
  facet normal -0 0 1
    outer loop
      vertex 5.09878 -15.6924 6.66667
      vertex 7.64817 -23.5386 6.66667
      vertex 9.69846 -13.3488 6.66667
    endloop
  endfacet
  facet normal -0 0 1
    outer loop
      vertex 0 -16.5 6.66667
      vertex 7.64817 -23.5386 6.66667
      vertex 5.09878 -15.6924 6.66667
    endloop
  endfacet
  facet normal 0 0 1
    outer loop
      vertex 0 -16.5 6.66667
      vertex 0 -24.75 6.66667
      vertex 7.64817 -23.5386 6.66667
    endloop
  endfacet
  facet normal 0 0 1
    outer loop
      vertex -5.09878 -15.6924 6.66667
      vertex 0 -24.75 6.66667
      vertex 0 -16.5 6.66667
    endloop
  endfacet
  facet normal 0 0 1
    outer loop
      vertex -5.09878 -15.6924 6.66667
      vertex -7.64817 -23.5386 6.66667
      vertex 0 -24.75 6.66667
    endloop
  endfacet
  facet normal 0 0 1
    outer loop
      vertex -9.69846 -13.3488 6.66667
      vertex -7.64817 -23.5386 6.66667
      vertex -5.09878 -15.6924 6.66667
    endloop
  endfacet
  facet normal 0 0 1
    outer loop
      vertex -14.5477 -20.0232 6.66667
      vertex -9.69846 -13.3488 6.66667
      vertex -13.3488 -9.69846 6.66667
    endloop
  endfacet
  facet normal 0 0 1
    outer loop
      vertex -9.69846 -13.3488 6.66667
      vertex -14.5477 -20.0232 6.66667
      vertex -7.64817 -23.5386 6.66667
    endloop
  endfacet
  facet normal 0 0 1
    outer loop
      vertex -20.0232 -14.5477 6.66667
      vertex -13.3488 -9.69846 6.66667
      vertex -15.6924 -5.09878 6.66667
    endloop
  endfacet
  facet normal 0 0 1
    outer loop
      vertex -23.5386 -7.64817 6.66667
      vertex -15.6924 -5.09878 6.66667
      vertex -16.5 0 6.66667
    endloop
  endfacet
  facet normal 0 0 1
    outer loop
      vertex -15.6924 5.09878 6.66667
      vertex -23.5386 7.64817 6.66667
      vertex -16.5 0 6.66667
    endloop
  endfacet
  facet normal 0 0 1
    outer loop
      vertex -13.3488 -9.69846 6.66667
      vertex -20.0232 -14.5477 6.66667
      vertex -14.5477 -20.0232 6.66667
    endloop
  endfacet
  facet normal 0 0 1
    outer loop
      vertex -24.75 0 6.66667
      vertex -16.5 0 6.66667
      vertex -23.5386 7.64817 6.66667
    endloop
  endfacet
  facet normal 0 0 1
    outer loop
      vertex -15.6924 -5.09878 6.66667
      vertex -23.5386 -7.64817 6.66667
      vertex -20.0232 -14.5477 6.66667
    endloop
  endfacet
  facet normal 0 0 1
    outer loop
      vertex -16.5 0 6.66667
      vertex -24.75 0 6.66667
      vertex -23.5386 -7.64817 6.66667
    endloop
  endfacet
  facet normal 0.987688 -0.156434 0
    outer loop
      vertex 23.5386 -7.64817 6.66667
      vertex 24.75 0 0
      vertex 24.75 0 6.66667
    endloop
  endfacet
  facet normal 0.987688 -0.156434 0
    outer loop
      vertex 24.75 0 0
      vertex 23.5386 -7.64817 6.66667
      vertex 23.5386 -7.64817 0
    endloop
  endfacet
  facet normal 0.156434 -0.987688 0
    outer loop
      vertex 0 -24.75 0
      vertex 7.64817 -23.5386 6.66667
      vertex 0 -24.75 6.66667
    endloop
  endfacet
  facet normal 0.156434 -0.987688 0
    outer loop
      vertex 7.64817 -23.5386 6.66667
      vertex 0 -24.75 0
      vertex 7.64817 -23.5386 0
    endloop
  endfacet
  facet normal 0.707107 -0.707107 0
    outer loop
      vertex 14.5477 -20.0232 6.66667
      vertex 20.0232 -14.5477 0
      vertex 20.0232 -14.5477 6.66667
    endloop
  endfacet
  facet normal 0.707107 -0.707107 0
    outer loop
      vertex 20.0232 -14.5477 0
      vertex 14.5477 -20.0232 6.66667
      vertex 14.5477 -20.0232 0
    endloop
  endfacet
  facet normal -0.453991 -0.891007 0
    outer loop
      vertex -14.5477 -20.0232 0
      vertex -7.64817 -23.5386 6.66667
      vertex -14.5477 -20.0232 6.66667
    endloop
  endfacet
  facet normal -0.453991 -0.891007 -0
    outer loop
      vertex -7.64817 -23.5386 6.66667
      vertex -14.5477 -20.0232 0
      vertex -7.64817 -23.5386 0
    endloop
  endfacet
  facet normal -0.891007 -0.453991 0
    outer loop
      vertex -20.0232 -14.5477 0
      vertex -23.5386 -7.64817 6.66667
      vertex -23.5386 -7.64817 0
    endloop
  endfacet
  facet normal -0.891007 -0.453991 0
    outer loop
      vertex -23.5386 -7.64817 6.66667
      vertex -20.0232 -14.5477 0
      vertex -20.0232 -14.5477 6.66667
    endloop
  endfacet
  facet normal 0.453991 -0.891007 0
    outer loop
      vertex 7.64817 -23.5386 0
      vertex 14.5477 -20.0232 6.66667
      vertex 7.64817 -23.5386 6.66667
    endloop
  endfacet
  facet normal 0.453991 -0.891007 0
    outer loop
      vertex 14.5477 -20.0232 6.66667
      vertex 7.64817 -23.5386 0
      vertex 14.5477 -20.0232 0
    endloop
  endfacet
  facet normal -0.987688 0.156435 0
    outer loop
      vertex -16.5 0 6.66667
      vertex -15.6924 5.09878 20
      vertex -15.6924 5.09878 6.66667
    endloop
  endfacet
  facet normal -0.987688 0.156435 0
    outer loop
      vertex -15.6924 5.09878 20
      vertex -16.5 0 6.66667
      vertex -16.5 0 20
    endloop
  endfacet
  facet normal 0.453991 0.891006 -0
    outer loop
      vertex 9.69846 13.3488 6.66667
      vertex 5.09878 15.6924 20
      vertex 9.69846 13.3488 20
    endloop
  endfacet
  facet normal 0.453991 0.891006 0
    outer loop
      vertex 5.09878 15.6924 20
      vertex 9.69846 13.3488 6.66667
      vertex 5.09878 15.6924 6.66667
    endloop
  endfacet
  facet normal 0.156435 -0.987688 0
    outer loop
      vertex 0 -16.5 6.66667
      vertex 5.09878 -15.6924 20
      vertex 0 -16.5 20
    endloop
  endfacet
  facet normal 0.156435 -0.987688 0
    outer loop
      vertex 5.09878 -15.6924 20
      vertex 0 -16.5 6.66667
      vertex 5.09878 -15.6924 6.66667
    endloop
  endfacet
  facet normal -0.156435 -0.987688 0
    outer loop
      vertex -5.09878 -15.6924 6.66667
      vertex 0 -16.5 20
      vertex -5.09878 -15.6924 20
    endloop
  endfacet
  facet normal -0.156435 -0.987688 -0
    outer loop
      vertex 0 -16.5 20
      vertex -5.09878 -15.6924 6.66667
      vertex 0 -16.5 6.66667
    endloop
  endfacet
  facet normal 0.707107 0.707107 0
    outer loop
      vertex 13.3488 9.69846 20
      vertex 9.69846 13.3488 6.66667
      vertex 9.69846 13.3488 20
    endloop
  endfacet
  facet normal 0.707107 0.707107 0
    outer loop
      vertex 9.69846 13.3488 6.66667
      vertex 13.3488 9.69846 20
      vertex 13.3488 9.69846 6.66667
    endloop
  endfacet
  facet normal 0.891006 0.453991 0
    outer loop
      vertex 15.6924 5.09878 20
      vertex 13.3488 9.69846 6.66667
      vertex 13.3488 9.69846 20
    endloop
  endfacet
  facet normal 0.891006 0.453991 0
    outer loop
      vertex 13.3488 9.69846 6.66667
      vertex 15.6924 5.09878 20
      vertex 15.6924 5.09878 6.66667
    endloop
  endfacet
  facet normal 0.156435 0.987688 -0
    outer loop
      vertex 5.09878 15.6924 6.66667
      vertex 0 16.5 20
      vertex 5.09878 15.6924 20
    endloop
  endfacet
  facet normal 0.156435 0.987688 0
    outer loop
      vertex 0 16.5 20
      vertex 5.09878 15.6924 6.66667
      vertex 0 16.5 6.66667
    endloop
  endfacet
  facet normal -0.156435 0.987688 0
    outer loop
      vertex 0 16.5 6.66667
      vertex -5.09878 15.6924 20
      vertex 0 16.5 20
    endloop
  endfacet
  facet normal -0.156435 0.987688 0
    outer loop
      vertex -5.09878 15.6924 20
      vertex 0 16.5 6.66667
      vertex -5.09878 15.6924 6.66667
    endloop
  endfacet
  facet normal -0.891006 0.453991 0
    outer loop
      vertex -15.6924 5.09878 6.66667
      vertex -13.3488 9.69846 20
      vertex -13.3488 9.69846 6.66667
    endloop
  endfacet
  facet normal -0.891006 0.453991 0
    outer loop
      vertex -13.3488 9.69846 20
      vertex -15.6924 5.09878 6.66667
      vertex -15.6924 5.09878 20
    endloop
  endfacet
  facet normal -0.453991 0.891006 0
    outer loop
      vertex -5.09878 15.6924 6.66667
      vertex -9.69846 13.3488 20
      vertex -5.09878 15.6924 20
    endloop
  endfacet
  facet normal -0.453991 0.891006 0
    outer loop
      vertex -9.69846 13.3488 20
      vertex -5.09878 15.6924 6.66667
      vertex -9.69846 13.3488 6.66667
    endloop
  endfacet
  facet normal 0.987688 -0.156435 0
    outer loop
      vertex 15.6924 -5.09878 20
      vertex 16.5 0 6.66667
      vertex 16.5 0 20
    endloop
  endfacet
  facet normal 0.987688 -0.156435 0
    outer loop
      vertex 16.5 0 6.66667
      vertex 15.6924 -5.09878 20
      vertex 15.6924 -5.09878 6.66667
    endloop
  endfacet
  facet normal -0.987688 -0.156435 0
    outer loop
      vertex -15.6924 -5.09878 6.66667
      vertex -16.5 0 20
      vertex -16.5 0 6.66667
    endloop
  endfacet
  facet normal -0.987688 -0.156435 0
    outer loop
      vertex -16.5 0 20
      vertex -15.6924 -5.09878 6.66667
      vertex -15.6924 -5.09878 20
    endloop
  endfacet
  facet normal 0 0 1
    outer loop
      vertex 11.5 0 20
      vertex 16.5 0 20
      vertex 15.6924 5.09878 20
    endloop
  endfacet
  facet normal 0 0 1
    outer loop
      vertex 10.9371 3.55369 20
      vertex 15.6924 5.09878 20
      vertex 13.3488 9.69846 20
    endloop
  endfacet
  facet normal 0 0 1
    outer loop
      vertex 16.5 0 20
      vertex 11.5 0 20
      vertex 15.6924 -5.09878 20
    endloop
  endfacet
  facet normal -0 0 1
    outer loop
      vertex 10.9371 -3.55369 20
      vertex 15.6924 -5.09878 20
      vertex 11.5 0 20
    endloop
  endfacet
  facet normal 0 0 1
    outer loop
      vertex 15.6924 5.09878 20
      vertex 10.9371 3.55369 20
      vertex 11.5 0 20
    endloop
  endfacet
  facet normal 0 0 1
    outer loop
      vertex 9.30369 6.75953 20
      vertex 13.3488 9.69846 20
      vertex 9.69846 13.3488 20
    endloop
  endfacet
  facet normal 0 0 1
    outer loop
      vertex 13.3488 9.69846 20
      vertex 9.30369 6.75953 20
      vertex 10.9371 3.55369 20
    endloop
  endfacet
  facet normal 0 0 1
    outer loop
      vertex 9.69846 13.3488 20
      vertex 6.75953 9.30369 20
      vertex 9.30369 6.75953 20
    endloop
  endfacet
  facet normal 0 0 1
    outer loop
      vertex 5.09878 15.6924 20
      vertex 6.75953 9.30369 20
      vertex 9.69846 13.3488 20
    endloop
  endfacet
  facet normal 0 0 1
    outer loop
      vertex 5.09878 15.6924 20
      vertex 3.55369 10.9371 20
      vertex 6.75953 9.30369 20
    endloop
  endfacet
  facet normal 0 0 1
    outer loop
      vertex 0 16.5 20
      vertex 3.55369 10.9371 20
      vertex 5.09878 15.6924 20
    endloop
  endfacet
  facet normal 0 0 1
    outer loop
      vertex 0 16.5 20
      vertex 0 11.5 20
      vertex 3.55369 10.9371 20
    endloop
  endfacet
  facet normal 0 0 1
    outer loop
      vertex 0 16.5 20
      vertex -3.55369 10.9371 20
      vertex 0 11.5 20
    endloop
  endfacet
  facet normal -0 0 1
    outer loop
      vertex -5.09878 15.6924 20
      vertex -3.55369 10.9371 20
      vertex 0 16.5 20
    endloop
  endfacet
  facet normal 0 0 1
    outer loop
      vertex -5.09878 15.6924 20
      vertex -6.75953 9.30369 20
      vertex -3.55369 10.9371 20
    endloop
  endfacet
  facet normal -0 0 1
    outer loop
      vertex -9.69846 13.3488 20
      vertex -6.75953 9.30369 20
      vertex -5.09878 15.6924 20
    endloop
  endfacet
  facet normal 0 0 1
    outer loop
      vertex -6.75953 9.30369 20
      vertex -9.69846 13.3488 20
      vertex -9.30369 6.75953 20
    endloop
  endfacet
  facet normal -0 0 1
    outer loop
      vertex -13.3488 9.69846 20
      vertex -9.30369 6.75953 20
      vertex -9.69846 13.3488 20
    endloop
  endfacet
  facet normal 0 0 1
    outer loop
      vertex -9.30369 6.75953 20
      vertex -13.3488 9.69846 20
      vertex -10.9371 3.55369 20
    endloop
  endfacet
  facet normal -0 0 1
    outer loop
      vertex -15.6924 5.09878 20
      vertex -10.9371 3.55369 20
      vertex -13.3488 9.69846 20
    endloop
  endfacet
  facet normal 0 0 1
    outer loop
      vertex 15.6924 -5.09878 20
      vertex 10.9371 -3.55369 20
      vertex 13.3488 -9.69846 20
    endloop
  endfacet
  facet normal -0 0 1
    outer loop
      vertex 9.30369 -6.75953 20
      vertex 13.3488 -9.69846 20
      vertex 10.9371 -3.55369 20
    endloop
  endfacet
  facet normal 0 0 1
    outer loop
      vertex 13.3488 -9.69846 20
      vertex 9.30369 -6.75953 20
      vertex 9.69846 -13.3488 20
    endloop
  endfacet
  facet normal -0 0 1
    outer loop
      vertex 6.75953 -9.30369 20
      vertex 9.69846 -13.3488 20
      vertex 9.30369 -6.75953 20
    endloop
  endfacet
  facet normal 0 0 1
    outer loop
      vertex 6.75953 -9.30369 20
      vertex 5.09878 -15.6924 20
      vertex 9.69846 -13.3488 20
    endloop
  endfacet
  facet normal -0 0 1
    outer loop
      vertex 3.55369 -10.9371 20
      vertex 5.09878 -15.6924 20
      vertex 6.75953 -9.30369 20
    endloop
  endfacet
  facet normal -0 0 1
    outer loop
      vertex 0 -11.5 20
      vertex 5.09878 -15.6924 20
      vertex 3.55369 -10.9371 20
    endloop
  endfacet
  facet normal 0 0 1
    outer loop
      vertex 0 -11.5 20
      vertex 0 -16.5 20
      vertex 5.09878 -15.6924 20
    endloop
  endfacet
  facet normal 0 0 1
    outer loop
      vertex -3.55369 -10.9371 20
      vertex 0 -16.5 20
      vertex 0 -11.5 20
    endloop
  endfacet
  facet normal 0 0 1
    outer loop
      vertex -3.55369 -10.9371 20
      vertex -5.09878 -15.6924 20
      vertex 0 -16.5 20
    endloop
  endfacet
  facet normal 0 0 1
    outer loop
      vertex -6.75953 -9.30369 20
      vertex -5.09878 -15.6924 20
      vertex -3.55369 -10.9371 20
    endloop
  endfacet
  facet normal 0 0 1
    outer loop
      vertex -9.69846 -13.3488 20
      vertex -6.75953 -9.30369 20
      vertex -9.30369 -6.75953 20
    endloop
  endfacet
  facet normal 0 0 1
    outer loop
      vertex -6.75953 -9.30369 20
      vertex -9.69846 -13.3488 20
      vertex -5.09878 -15.6924 20
    endloop
  endfacet
  facet normal 0 0 1
    outer loop
      vertex -13.3488 -9.69846 20
      vertex -9.30369 -6.75953 20
      vertex -10.9371 -3.55369 20
    endloop
  endfacet
  facet normal 0 0 1
    outer loop
      vertex -15.6924 -5.09878 20
      vertex -10.9371 -3.55369 20
      vertex -11.5 0 20
    endloop
  endfacet
  facet normal 0 0 1
    outer loop
      vertex -10.9371 3.55369 20
      vertex -15.6924 5.09878 20
      vertex -11.5 0 20
    endloop
  endfacet
  facet normal 0 0 1
    outer loop
      vertex -9.30369 -6.75953 20
      vertex -13.3488 -9.69846 20
      vertex -9.69846 -13.3488 20
    endloop
  endfacet
  facet normal 0 0 1
    outer loop
      vertex -16.5 0 20
      vertex -11.5 0 20
      vertex -15.6924 5.09878 20
    endloop
  endfacet
  facet normal 0 0 1
    outer loop
      vertex -10.9371 -3.55369 20
      vertex -15.6924 -5.09878 20
      vertex -13.3488 -9.69846 20
    endloop
  endfacet
  facet normal 0 0 1
    outer loop
      vertex -11.5 0 20
      vertex -16.5 0 20
      vertex -15.6924 -5.09878 20
    endloop
  endfacet
  facet normal -0.707107 0.707107 0
    outer loop
      vertex -13.3488 9.69846 6.66667
      vertex -9.69846 13.3488 20
      vertex -9.69846 13.3488 6.66667
    endloop
  endfacet
  facet normal -0.707107 0.707107 0
    outer loop
      vertex -9.69846 13.3488 20
      vertex -13.3488 9.69846 6.66667
      vertex -13.3488 9.69846 20
    endloop
  endfacet
  facet normal 0.987688 0.156435 0
    outer loop
      vertex 16.5 0 20
      vertex 15.6924 5.09878 6.66667
      vertex 15.6924 5.09878 20
    endloop
  endfacet
  facet normal 0.987688 0.156435 0
    outer loop
      vertex 15.6924 5.09878 6.66667
      vertex 16.5 0 20
      vertex 16.5 0 6.66667
    endloop
  endfacet
  facet normal -0.707107 -0.707107 0
    outer loop
      vertex -9.69846 -13.3488 6.66667
      vertex -13.3488 -9.69846 20
      vertex -13.3488 -9.69846 6.66667
    endloop
  endfacet
  facet normal -0.707107 -0.707107 0
    outer loop
      vertex -13.3488 -9.69846 20
      vertex -9.69846 -13.3488 6.66667
      vertex -9.69846 -13.3488 20
    endloop
  endfacet
  facet normal -0.891006 -0.453991 0
    outer loop
      vertex -13.3488 -9.69846 6.66667
      vertex -15.6924 -5.09878 20
      vertex -15.6924 -5.09878 6.66667
    endloop
  endfacet
  facet normal -0.891006 -0.453991 0
    outer loop
      vertex -15.6924 -5.09878 20
      vertex -13.3488 -9.69846 6.66667
      vertex -13.3488 -9.69846 20
    endloop
  endfacet
  facet normal -0.453991 -0.891006 0
    outer loop
      vertex -9.69846 -13.3488 6.66667
      vertex -5.09878 -15.6924 20
      vertex -9.69846 -13.3488 20
    endloop
  endfacet
  facet normal -0.453991 -0.891006 -0
    outer loop
      vertex -5.09878 -15.6924 20
      vertex -9.69846 -13.3488 6.66667
      vertex -5.09878 -15.6924 6.66667
    endloop
  endfacet
  facet normal 0.707107 -0.707107 0
    outer loop
      vertex 9.69846 -13.3488 20
      vertex 13.3488 -9.69846 6.66667
      vertex 13.3488 -9.69846 20
    endloop
  endfacet
  facet normal 0.707107 -0.707107 0
    outer loop
      vertex 13.3488 -9.69846 6.66667
      vertex 9.69846 -13.3488 20
      vertex 9.69846 -13.3488 6.66667
    endloop
  endfacet
  facet normal 0.453991 -0.891006 0
    outer loop
      vertex 5.09878 -15.6924 6.66667
      vertex 9.69846 -13.3488 20
      vertex 5.09878 -15.6924 20
    endloop
  endfacet
  facet normal 0.453991 -0.891006 0
    outer loop
      vertex 9.69846 -13.3488 20
      vertex 5.09878 -15.6924 6.66667
      vertex 9.69846 -13.3488 6.66667
    endloop
  endfacet
  facet normal 0.891006 -0.453991 0
    outer loop
      vertex 13.3488 -9.69846 20
      vertex 15.6924 -5.09878 6.66667
      vertex 15.6924 -5.09878 20
    endloop
  endfacet
  facet normal 0.891006 -0.453991 0
    outer loop
      vertex 15.6924 -5.09878 6.66667
      vertex 13.3488 -9.69846 20
      vertex 13.3488 -9.69846 6.66667
    endloop
  endfacet
  facet normal -0.987688 -0.156435 0
    outer loop
      vertex 11.5 0 10
      vertex 10.9371 3.55369 20
      vertex 10.9371 3.55369 10
    endloop
  endfacet
  facet normal -0.987688 -0.156435 0
    outer loop
      vertex 10.9371 3.55369 20
      vertex 11.5 0 10
      vertex 11.5 0 20
    endloop
  endfacet
  facet normal -0.45399 -0.891007 0
    outer loop
      vertex 3.55369 10.9371 10
      vertex 6.75953 9.30369 20
      vertex 3.55369 10.9371 20
    endloop
  endfacet
  facet normal -0.45399 -0.891007 -0
    outer loop
      vertex 6.75953 9.30369 20
      vertex 3.55369 10.9371 10
      vertex 6.75953 9.30369 10
    endloop
  endfacet
  facet normal 0.45399 0.891007 -0
    outer loop
      vertex -3.55369 -10.9371 10
      vertex -6.75953 -9.30369 20
      vertex -3.55369 -10.9371 20
    endloop
  endfacet
  facet normal 0.45399 0.891007 0
    outer loop
      vertex -6.75953 -9.30369 20
      vertex -3.55369 -10.9371 10
      vertex -6.75953 -9.30369 10
    endloop
  endfacet
  facet normal -0.707107 -0.707107 0
    outer loop
      vertex 9.30369 6.75953 10
      vertex 6.75953 9.30369 20
      vertex 6.75953 9.30369 10
    endloop
  endfacet
  facet normal -0.707107 -0.707107 0
    outer loop
      vertex 6.75953 9.30369 20
      vertex 9.30369 6.75953 10
      vertex 9.30369 6.75953 20
    endloop
  endfacet
  facet normal -0.891007 -0.45399 0
    outer loop
      vertex 10.9371 3.55369 10
      vertex 9.30369 6.75953 20
      vertex 9.30369 6.75953 10
    endloop
  endfacet
  facet normal -0.891007 -0.45399 0
    outer loop
      vertex 9.30369 6.75953 20
      vertex 10.9371 3.55369 10
      vertex 10.9371 3.55369 20
    endloop
  endfacet
  facet normal -0.156435 -0.987688 0
    outer loop
      vertex 0 11.5 10
      vertex 3.55369 10.9371 20
      vertex 0 11.5 20
    endloop
  endfacet
  facet normal -0.156435 -0.987688 -0
    outer loop
      vertex 3.55369 10.9371 20
      vertex 0 11.5 10
      vertex 3.55369 10.9371 10
    endloop
  endfacet
  facet normal 0.156435 -0.987688 0
    outer loop
      vertex -3.55369 10.9371 10
      vertex 0 11.5 20
      vertex -3.55369 10.9371 20
    endloop
  endfacet
  facet normal 0.156435 -0.987688 0
    outer loop
      vertex 0 11.5 20
      vertex -3.55369 10.9371 10
      vertex 0 11.5 10
    endloop
  endfacet
  facet normal 0.45399 -0.891007 0
    outer loop
      vertex -6.75953 9.30369 10
      vertex -3.55369 10.9371 20
      vertex -6.75953 9.30369 20
    endloop
  endfacet
  facet normal 0.45399 -0.891007 0
    outer loop
      vertex -3.55369 10.9371 20
      vertex -6.75953 9.30369 10
      vertex -3.55369 10.9371 10
    endloop
  endfacet
  facet normal -0.707107 0.707107 0
    outer loop
      vertex 6.75953 -9.30369 10
      vertex 9.30369 -6.75953 20
      vertex 9.30369 -6.75953 10
    endloop
  endfacet
  facet normal -0.707107 0.707107 0
    outer loop
      vertex 9.30369 -6.75953 20
      vertex 6.75953 -9.30369 10
      vertex 6.75953 -9.30369 20
    endloop
  endfacet
  facet normal 0.987688 0.156435 0
    outer loop
      vertex -10.9371 -3.55369 20
      vertex -11.5 0 10
      vertex -11.5 0 20
    endloop
  endfacet
  facet normal 0.987688 0.156435 0
    outer loop
      vertex -11.5 0 10
      vertex -10.9371 -3.55369 20
      vertex -10.9371 -3.55369 10
    endloop
  endfacet
  facet normal 0.707107 0.707107 0
    outer loop
      vertex -6.75953 -9.30369 20
      vertex -9.30369 -6.75953 10
      vertex -9.30369 -6.75953 20
    endloop
  endfacet
  facet normal 0.707107 0.707107 0
    outer loop
      vertex -9.30369 -6.75953 10
      vertex -6.75953 -9.30369 20
      vertex -6.75953 -9.30369 10
    endloop
  endfacet
  facet normal 0 0 1
    outer loop
      vertex 10.9371 3.55369 10
      vertex 10.9371 -3.55369 10
      vertex 11.5 0 10
    endloop
  endfacet
  facet normal 0 0 1
    outer loop
      vertex 9.30369 6.75953 10
      vertex 10.9371 -3.55369 10
      vertex 10.9371 3.55369 10
    endloop
  endfacet
  facet normal 0 0 1
    outer loop
      vertex 9.30369 6.75953 10
      vertex 9.30369 -6.75953 10
      vertex 10.9371 -3.55369 10
    endloop
  endfacet
  facet normal 0 0 1
    outer loop
      vertex 6.75953 9.30369 10
      vertex 9.30369 -6.75953 10
      vertex 9.30369 6.75953 10
    endloop
  endfacet
  facet normal 0 0 1
    outer loop
      vertex 6.75953 9.30369 10
      vertex 6.75953 -9.30369 10
      vertex 9.30369 -6.75953 10
    endloop
  endfacet
  facet normal 0 0 1
    outer loop
      vertex 3.55369 10.9371 10
      vertex 6.75953 -9.30369 10
      vertex 6.75953 9.30369 10
    endloop
  endfacet
  facet normal 0 0 1
    outer loop
      vertex 3.55369 10.9371 10
      vertex 3.55369 -10.9371 10
      vertex 6.75953 -9.30369 10
    endloop
  endfacet
  facet normal 0 0 1
    outer loop
      vertex 0 11.5 10
      vertex 3.55369 -10.9371 10
      vertex 3.55369 10.9371 10
    endloop
  endfacet
  facet normal 0 0 1
    outer loop
      vertex 0 11.5 10
      vertex 0 -11.5 10
      vertex 3.55369 -10.9371 10
    endloop
  endfacet
  facet normal -0 0 1
    outer loop
      vertex -3.55369 10.9371 10
      vertex 0 -11.5 10
      vertex 0 11.5 10
    endloop
  endfacet
  facet normal 0 0 1
    outer loop
      vertex -3.55369 10.9371 10
      vertex -3.55369 -10.9371 10
      vertex 0 -11.5 10
    endloop
  endfacet
  facet normal -0 0 1
    outer loop
      vertex -6.75953 9.30369 10
      vertex -3.55369 -10.9371 10
      vertex -3.55369 10.9371 10
    endloop
  endfacet
  facet normal 0 0 1
    outer loop
      vertex -6.75953 9.30369 10
      vertex -6.75953 -9.30369 10
      vertex -3.55369 -10.9371 10
    endloop
  endfacet
  facet normal -0 0 1
    outer loop
      vertex -9.30369 6.75953 10
      vertex -6.75953 -9.30369 10
      vertex -6.75953 9.30369 10
    endloop
  endfacet
  facet normal 0 0 1
    outer loop
      vertex -9.30369 6.75953 10
      vertex -9.30369 -6.75953 10
      vertex -6.75953 -9.30369 10
    endloop
  endfacet
  facet normal -0 0 1
    outer loop
      vertex -10.9371 3.55369 10
      vertex -9.30369 -6.75953 10
      vertex -9.30369 6.75953 10
    endloop
  endfacet
  facet normal 0 0 1
    outer loop
      vertex -10.9371 3.55369 10
      vertex -10.9371 -3.55369 10
      vertex -9.30369 -6.75953 10
    endloop
  endfacet
  facet normal 0 -0 1
    outer loop
      vertex -10.9371 -3.55369 10
      vertex -10.9371 3.55369 10
      vertex -11.5 0 10
    endloop
  endfacet
  facet normal 0.987688 -0.156435 0
    outer loop
      vertex -11.5 0 20
      vertex -10.9371 3.55369 10
      vertex -10.9371 3.55369 20
    endloop
  endfacet
  facet normal 0.987688 -0.156435 0
    outer loop
      vertex -10.9371 3.55369 10
      vertex -11.5 0 20
      vertex -11.5 0 10
    endloop
  endfacet
  facet normal 0.707107 -0.707107 0
    outer loop
      vertex -9.30369 6.75953 20
      vertex -6.75953 9.30369 10
      vertex -6.75953 9.30369 20
    endloop
  endfacet
  facet normal 0.707107 -0.707107 0
    outer loop
      vertex -6.75953 9.30369 10
      vertex -9.30369 6.75953 20
      vertex -9.30369 6.75953 10
    endloop
  endfacet
  facet normal -0.891007 0.45399 0
    outer loop
      vertex 9.30369 -6.75953 10
      vertex 10.9371 -3.55369 20
      vertex 10.9371 -3.55369 10
    endloop
  endfacet
  facet normal -0.891007 0.45399 0
    outer loop
      vertex 10.9371 -3.55369 20
      vertex 9.30369 -6.75953 10
      vertex 9.30369 -6.75953 20
    endloop
  endfacet
  facet normal -0.156435 0.987688 0
    outer loop
      vertex 3.55369 -10.9371 10
      vertex 0 -11.5 20
      vertex 3.55369 -10.9371 20
    endloop
  endfacet
  facet normal -0.156435 0.987688 0
    outer loop
      vertex 0 -11.5 20
      vertex 3.55369 -10.9371 10
      vertex 0 -11.5 10
    endloop
  endfacet
  facet normal -0.45399 0.891007 0
    outer loop
      vertex 6.75953 -9.30369 10
      vertex 3.55369 -10.9371 20
      vertex 6.75953 -9.30369 20
    endloop
  endfacet
  facet normal -0.45399 0.891007 0
    outer loop
      vertex 3.55369 -10.9371 20
      vertex 6.75953 -9.30369 10
      vertex 3.55369 -10.9371 10
    endloop
  endfacet
  facet normal 0.156435 0.987688 -0
    outer loop
      vertex 0 -11.5 10
      vertex -3.55369 -10.9371 20
      vertex 0 -11.5 20
    endloop
  endfacet
  facet normal 0.156435 0.987688 0
    outer loop
      vertex -3.55369 -10.9371 20
      vertex 0 -11.5 10
      vertex -3.55369 -10.9371 10
    endloop
  endfacet
  facet normal 0.891007 0.45399 0
    outer loop
      vertex -9.30369 -6.75953 20
      vertex -10.9371 -3.55369 10
      vertex -10.9371 -3.55369 20
    endloop
  endfacet
  facet normal 0.891007 0.45399 0
    outer loop
      vertex -10.9371 -3.55369 10
      vertex -9.30369 -6.75953 20
      vertex -9.30369 -6.75953 10
    endloop
  endfacet
  facet normal 0.891007 -0.45399 0
    outer loop
      vertex -10.9371 3.55369 20
      vertex -9.30369 6.75953 10
      vertex -9.30369 6.75953 20
    endloop
  endfacet
  facet normal 0.891007 -0.45399 0
    outer loop
      vertex -9.30369 6.75953 10
      vertex -10.9371 3.55369 20
      vertex -10.9371 3.55369 10
    endloop
  endfacet
  facet normal -0.987688 0.156435 0
    outer loop
      vertex 10.9371 -3.55369 10
      vertex 11.5 0 20
      vertex 11.5 0 10
    endloop
  endfacet
  facet normal -0.987688 0.156435 0
    outer loop
      vertex 11.5 0 20
      vertex 10.9371 -3.55369 10
      vertex 10.9371 -3.55369 20
    endloop
  endfacet
endsolid OpenSCAD_Model
