solid JSModelerModel
	facet normal 0.3568220897730902 0 0.9341723589627158
		outer loop
			vertex 0 0.5257311121191336 0.85065080835204
			vertex 0 -0.5257311121191336 0.85065080835204
			vertex 0.85065080835204 0 0.5257311121191336
		endloop
	endfacet
	facet normal 0 0.9341723589627158 0.3568220897730902
		outer loop
			vertex 0 0.5257311121191336 0.85065080835204
			vertex 0.5257311121191336 0.85065080835204 0
			vertex -0.5257311121191336 0.85065080835204 0
		endloop
	endfacet
	facet normal -0.5773502691896258 0.5773502691896258 0.5773502691896257
		outer loop
			vertex 0 0.5257311121191336 0.85065080835204
			vertex -0.5257311121191336 0.85065080835204 0
			vertex -0.85065080835204 0 0.5257311121191336
		endloop
	endfacet
	facet normal 0.5773502691896258 0.5773502691896257 0.5773502691896258
		outer loop
			vertex 0 0.5257311121191336 0.85065080835204
			vertex 0.85065080835204 0 0.5257311121191336
			vertex 0.5257311121191336 0.85065080835204 0
		endloop
	endfacet
	facet normal -0.3568220897730902 0 0.9341723589627158
		outer loop
			vertex 0 0.5257311121191336 0.85065080835204
			vertex -0.85065080835204 0 0.5257311121191336
			vertex 0 -0.5257311121191336 0.85065080835204
		endloop
	endfacet
	facet normal -0.3568220897730902 0 -0.9341723589627158
		outer loop
			vertex 0 0.5257311121191336 -0.85065080835204
			vertex 0 -0.5257311121191336 -0.85065080835204
			vertex -0.85065080835204 0 -0.5257311121191336
		endloop
	endfacet
	facet normal 0.5773502691896258 0.5773502691896258 -0.5773502691896257
		outer loop
			vertex 0 0.5257311121191336 -0.85065080835204
			vertex 0.5257311121191336 0.85065080835204 0
			vertex 0.85065080835204 0 -0.5257311121191336
		endloop
	endfacet
	facet normal 0 0.9341723589627158 -0.3568220897730902
		outer loop
			vertex 0 0.5257311121191336 -0.85065080835204
			vertex -0.5257311121191336 0.85065080835204 0
			vertex 0.5257311121191336 0.85065080835204 0
		endloop
	endfacet
	facet normal 0.3568220897730902 0 -0.9341723589627158
		outer loop
			vertex 0 0.5257311121191336 -0.85065080835204
			vertex 0.85065080835204 0 -0.5257311121191336
			vertex 0 -0.5257311121191336 -0.85065080835204
		endloop
	endfacet
	facet normal -0.5773502691896258 0.5773502691896257 -0.5773502691896258
		outer loop
			vertex 0 0.5257311121191336 -0.85065080835204
			vertex -0.85065080835204 0 -0.5257311121191336
			vertex -0.5257311121191336 0.85065080835204 0
		endloop
	endfacet
	facet normal 0.5773502691896258 -0.5773502691896258 0.5773502691896257
		outer loop
			vertex 0 -0.5257311121191336 0.85065080835204
			vertex 0.5257311121191336 -0.85065080835204 0
			vertex 0.85065080835204 0 0.5257311121191336
		endloop
	endfacet
	facet normal 0 -0.9341723589627158 0.3568220897730902
		outer loop
			vertex 0 -0.5257311121191336 0.85065080835204
			vertex -0.5257311121191336 -0.85065080835204 0
			vertex 0.5257311121191336 -0.85065080835204 0
		endloop
	endfacet
	facet normal -0.5773502691896258 -0.5773502691896257 0.5773502691896258
		outer loop
			vertex 0 -0.5257311121191336 0.85065080835204
			vertex -0.85065080835204 0 0.5257311121191336
			vertex -0.5257311121191336 -0.85065080835204 0
		endloop
	endfacet
	facet normal 0 -0.9341723589627158 -0.3568220897730902
		outer loop
			vertex 0 -0.5257311121191336 -0.85065080835204
			vertex 0.5257311121191336 -0.85065080835204 0
			vertex -0.5257311121191336 -0.85065080835204 0
		endloop
	endfacet
	facet normal -0.5773502691896258 -0.5773502691896258 -0.5773502691896257
		outer loop
			vertex 0 -0.5257311121191336 -0.85065080835204
			vertex -0.5257311121191336 -0.85065080835204 0
			vertex -0.85065080835204 0 -0.5257311121191336
		endloop
	endfacet
	facet normal 0.5773502691896258 -0.5773502691896257 -0.5773502691896258
		outer loop
			vertex 0 -0.5257311121191336 -0.85065080835204
			vertex 0.85065080835204 0 -0.5257311121191336
			vertex 0.5257311121191336 -0.85065080835204 0
		endloop
	endfacet
	facet normal 0.9341723589627158 0.3568220897730902 0
		outer loop
			vertex 0.5257311121191336 0.85065080835204 0
			vertex 0.85065080835204 0 0.5257311121191336
			vertex 0.85065080835204 0 -0.5257311121191336
		endloop
	endfacet
	facet normal 0.9341723589627158 -0.3568220897730902 0
		outer loop
			vertex 0.5257311121191336 -0.85065080835204 0
			vertex 0.85065080835204 0 -0.5257311121191336
			vertex 0.85065080835204 0 0.5257311121191336
		endloop
	endfacet
	facet normal -0.9341723589627158 0.3568220897730902 0
		outer loop
			vertex -0.5257311121191336 0.85065080835204 0
			vertex -0.85065080835204 0 -0.5257311121191336
			vertex -0.85065080835204 0 0.5257311121191336
		endloop
	endfacet
	facet normal -0.9341723589627158 -0.3568220897730902 0
		outer loop
			vertex -0.5257311121191336 -0.85065080835204 0
			vertex -0.85065080835204 0 0.5257311121191336
			vertex -0.85065080835204 0 -0.5257311121191336
		endloop
	endfacet
endsolid JSModelerModel
